<svg width="24" height="24" viewBox="0 0 24 24" fill="none" xmlns="http://www.w3.org/2000/svg">
<path d="M5.00001 15C3.93914 15 2.92173 15.4214 2.17158 16.1716C1.42143 16.9217 1.00001 17.9391 1.00001 19C0.998583 19.7272 1.1994 20.4404 1.58001 21.06C1.93254 21.6525 2.43329 22.143 3.03297 22.4831C3.63265 22.8233 4.31057 23.0014 5.00001 23C5.97048 23.0051 6.90806 22.6486 7.63001 22C7.94533 21.7343 8.21256 21.4163 8.42001 21.06C8.80062 20.4404 9.00143 19.7272 9.00001 19C9.00001 17.9391 8.57858 16.9217 7.82843 16.1716C7.07829 15.4214 6.06087 15 5.00001 15ZM7.07001 18.57L4.94001 20.54C4.80063 20.6675 4.6189 20.7388 4.43001 20.74C4.33148 20.7404 4.23388 20.7211 4.14288 20.6833C4.05188 20.6455 3.96932 20.59 3.90001 20.52L2.91001 19.53C2.77753 19.3878 2.7054 19.1998 2.70883 19.0055C2.71226 18.8112 2.79097 18.6258 2.92839 18.4884C3.0658 18.351 3.25118 18.2723 3.44549 18.2688C3.63979 18.2654 3.82783 18.3375 3.97001 18.47L4.45001 18.95L6.05001 17.47C6.19588 17.3347 6.3895 17.263 6.58829 17.2705C6.78708 17.278 6.97475 17.3641 7.11001 17.51C7.24527 17.6559 7.31704 17.8495 7.30954 18.0483C7.30204 18.2471 7.21588 18.4347 7.07001 18.57Z" fill="#44EABB"/>
<path opacity="0.4" d="M19.48 12.95H21.5V11.51C21.4979 10.5134 21.1011 9.55829 20.3964 8.85361C19.6917 8.14893 18.7366 7.75211 17.74 7.75H6.26C5.26344 7.75211 4.30829 8.14893 3.60361 8.85361C2.89893 9.55829 2.50211 10.5134 2.5 11.51V15.88C3.08811 15.4091 3.79725 15.1139 4.54576 15.0284C5.29427 14.9428 6.05173 15.0704 6.73093 15.3964C7.41012 15.7224 7.98344 16.2336 8.38487 16.8711C8.7863 17.5087 8.99953 18.2466 9 19C9.00142 19.7272 8.80061 20.4404 8.42 21.06C8.21255 21.4163 7.94532 21.7343 7.63 22H17.74C18.7366 21.9979 19.6917 21.6011 20.3964 20.8964C21.1011 20.1917 21.4979 19.2366 21.5 18.24V17.05H19.6C19.0724 17.0609 18.5594 16.8758 18.1604 16.5303C17.7614 16.1849 17.5047 15.7038 17.44 15.18C17.4166 14.8972 17.4518 14.6126 17.5436 14.3441C17.6353 14.0756 17.7815 13.8289 17.973 13.6195C18.1646 13.4101 18.3973 13.2426 18.6566 13.1274C18.9159 13.0122 19.1962 12.9518 19.48 12.95Z" fill="#44EABB"/>
<path d="M14.85 3.949V7.749H6.26001C5.26327 7.75111 4.30798 8.14807 3.60327 8.85296C2.89856 9.55786 2.50186 10.5133 2.50001 11.51V7.84C2.49872 7.26062 2.67416 6.69463 3.00292 6.21757C3.33169 5.7405 3.79813 5.37505 4.34001 5.17L12.28 2.17C12.5676 2.06161 12.8772 2.02462 13.1823 2.06219C13.4873 2.09977 13.7787 2.21078 14.0314 2.38571C14.2841 2.56065 14.4906 2.79427 14.6332 3.06656C14.7758 3.33884 14.8502 3.64164 14.85 3.949Z" fill="#44EABB"/>
<path d="M22.56 13.9701V16.0301C22.5583 16.2966 22.453 16.552 22.2664 16.7424C22.0798 16.9327 21.8265 17.043 21.56 17.0501H19.6C19.0724 17.061 18.5594 16.8758 18.1604 16.5304C17.7614 16.1849 17.5047 15.7038 17.44 15.1801C17.4116 14.8808 17.4508 14.5789 17.5546 14.2968C17.6585 14.0147 17.8244 13.7595 18.04 13.5501C18.2273 13.3583 18.4514 13.2064 18.6989 13.1033C18.9463 13.0002 19.212 12.9481 19.48 12.9501H21.56C21.8265 12.9571 22.0798 13.0674 22.2664 13.2577C22.453 13.4481 22.5583 13.7035 22.56 13.9701Z" fill="#44EABB"/>
<path d="M14 12.75H7C6.80149 12.7487 6.61149 12.6693 6.47112 12.5289C6.33075 12.3885 6.25131 12.1985 6.25 12C6.25131 11.8015 6.33075 11.6115 6.47112 11.4711C6.61149 11.3307 6.80149 11.2513 7 11.25H14C14.1985 11.2513 14.3885 11.3307 14.5289 11.4711C14.6693 11.6115 14.7487 11.8015 14.75 12C14.7487 12.1985 14.6693 12.3885 14.5289 12.5289C14.3885 12.6693 14.1985 12.7487 14 12.75Z" fill="#44EABB"/>
</svg>
