<svg width="120" height="40" viewBox="0 0 120 40" fill="none" xmlns="http://www.w3.org/2000/svg">
<path d="M20.946 10.0226C20.946 10.4657 20.9314 10.9001 20.9052 11.317C20.8789 11.7338 20.7886 12.2819 20.6399 12.9641C20.4883 13.6433 20.2901 14.2701 20.0452 14.8415C19.8003 15.41 19.4359 16.0105 18.9578 16.6344C18.4797 17.2611 17.9112 17.783 17.2524 18.1998C16.5965 18.6167 15.7598 18.9636 14.7482 19.2435C13.7337 19.5204 12.5997 19.6604 11.3403 19.6604H1.34101C0.603455 19.6604 0.00291586 19.0511 0.00291586 18.3019V14.4742H0.00874647C1.55382 14.4742 3.49829 14.4742 5.53604 14.4712H11.6114C12.3898 14.4712 12.9757 14.0806 13.2673 13.3751C13.5559 12.6813 13.4188 11.9962 12.8795 11.4452C10.97 9.49785 9.04016 7.54464 7.24146 5.7197C6.82749 5.29991 6.31149 5.12791 5.74885 5.2212C5.06377 5.3378 4.58859 5.74302 4.36994 6.39604C4.14547 7.07529 4.29415 7.70498 4.79849 8.22098C5.53604 8.97311 6.27943 9.72524 7.05488 10.5065L7.47759 10.938H0.00291586L0 1.36433C0.00291524 0.615117 0.60054 0.0087471 1.33518 0.0087471H11.3345C14.0456 0.0087471 16.3253 0.906641 18.1707 2.69951C20.0219 4.4953 20.946 6.93536 20.946 10.0226Z" fill="#3C67B1"/>
<path d="M20.946 30.3622C20.946 30.8053 20.9314 31.2397 20.9052 31.6566C20.8789 32.0735 20.7886 32.6215 20.6399 33.3037C20.4883 33.9829 20.2901 34.6097 20.0452 35.1811C19.8003 35.7496 19.4359 36.3501 18.9578 36.974C18.4797 37.6008 17.9112 38.1226 17.2524 38.5395C16.5965 38.9563 15.7598 39.3033 14.7482 39.5831C13.7337 39.8601 12.5997 40 11.3403 40H1.34101C0.603455 40 0.00291586 39.3907 0.00291586 38.6415V36.7L0 21.7069C0.00291524 20.9577 0.60054 20.3513 1.33518 20.3513H11.3345C14.0456 20.3513 16.3253 21.2492 18.1707 23.0421C18.9636 23.8146 19.5904 24.7037 20.0423 25.7124C18.6342 25.7124 16.8909 25.7124 15.0485 25.7153H8.40172C7.62335 25.7153 7.03739 26.1031 6.74295 26.8115C6.45726 27.5053 6.59427 28.1933 7.13068 28.7413C9.02558 30.6742 10.9584 32.6361 12.7658 34.4669C13.1069 34.8138 13.5151 34.9916 13.9611 34.9916C14.0602 34.9916 14.1564 34.9829 14.2584 34.9654C14.9435 34.8488 15.4187 34.4436 15.6373 33.7876C15.8618 33.1113 15.7131 32.4816 15.2088 31.9656C14.4712 31.2106 13.7279 30.4613 12.9495 29.6771L12.5297 29.2486H20.9023C20.9314 29.6072 20.946 29.9803 20.946 30.3622Z" fill="#3C67B1"/>
<path d="M25.826 0H33.0034C37.0672 0 39.0816 2.07273 39.0816 4.87428C39.0816 7.15983 37.6357 8.44545 35.8049 8.87399V9.05765C37.8019 9.15968 39.8134 10.8301 39.8134 13.6725C39.8134 16.5994 37.7086 18.7945 33.4144 18.7945H25.826V0ZM32.5807 7.99067C34.3473 7.99067 35.6854 6.96159 35.6854 5.31157C35.6854 3.86269 34.6505 2.80737 32.6565 2.80737H29.2223V7.99359H32.5807V7.99067ZM32.8751 15.9493C35.3385 15.9493 36.3617 14.9027 36.3617 13.4072C36.3617 11.728 35.0615 10.4424 32.9655 10.4424H29.2223V15.9493H32.8751Z" fill="#F26727"/>
<path d="M44.9034 18.7916H41.5887V0H44.8305V7.09278H44.9937C45.6438 5.49523 47.0169 4.51279 49.1771 4.51279C52.0982 4.51279 54.0193 6.41353 54.0193 9.81561V18.7916H50.7047V10.3316C50.7047 8.43087 49.6785 7.32017 47.9411 7.32017C46.1657 7.32017 44.9005 8.49501 44.9005 10.5328V18.7916H44.9034Z" fill="#F26727"/>
<path d="M55.6986 14.8386C55.6986 11.6639 58.3077 10.8476 61.0364 10.5532C63.5173 10.2879 64.5143 10.2412 64.5143 9.28795V9.23256C64.5143 7.84783 63.6718 7.05779 62.1355 7.05779C60.5146 7.05779 59.5817 7.88281 59.2523 8.84775L56.1592 8.40755C56.8909 5.83922 59.1619 4.51571 62.118 4.51571C64.8 4.51571 67.8318 5.63516 67.8318 9.36083V18.7945H64.6455V16.8588H64.5347C63.9312 18.0424 62.6136 19.0802 60.4067 19.0802C57.7218 19.0773 55.6986 17.608 55.6986 14.8386ZM64.523 13.7366V12.0749C64.0916 12.4248 62.3541 12.6434 61.4854 12.7629C60.0015 12.9728 58.8937 13.5063 58.8937 14.7832C58.8937 16.0047 59.882 16.6373 61.2638 16.6373C63.2607 16.6373 64.523 15.305 64.523 13.7366Z" fill="#F26727"/>
<path d="M70.1378 4.69645H73.3504V7.04614H73.4961C74.0092 5.4136 75.3561 4.4953 76.9653 4.4953C77.3326 4.4953 77.8544 4.5332 78.1547 4.58567V7.64376C77.8719 7.55339 77.1752 7.45135 76.6155 7.45135C74.7934 7.45135 73.4466 8.71657 73.4466 10.5065V18.7946H70.132V4.69645H70.1378Z" fill="#F26727"/>
<path d="M78.4054 14.8386C78.4054 11.6639 81.0145 10.8476 83.7432 10.5532C86.2241 10.2879 87.2211 10.2412 87.2211 9.28795V9.23256C87.2211 7.84783 86.3786 7.05779 84.8422 7.05779C83.2214 7.05779 82.2885 7.88281 81.9591 8.84775L78.866 8.40755C79.5977 5.83922 81.8687 4.51571 84.8248 4.51571C87.5068 4.51571 90.5386 5.63516 90.5386 9.36083V18.7945H87.3493V16.8588H87.2386C86.6351 18.0424 85.3174 19.0802 83.1106 19.0802C80.4286 19.0773 78.4054 17.608 78.4054 14.8386ZM87.2298 13.7366V12.0749C86.7984 12.4248 85.0609 12.6434 84.1921 12.7629C82.7083 12.9728 81.6005 13.5063 81.6005 14.7832C81.6005 16.0047 82.5888 16.6373 83.9706 16.6373C85.9675 16.6373 87.2298 15.305 87.2298 13.7366Z" fill="#F26727"/>
<path d="M99.8673 7.26769H97.0949V14.5529C97.0949 15.8939 97.7625 16.1854 98.5963 16.1854C99.0073 16.1854 99.3834 16.1038 99.567 16.0571L100.127 18.6546C99.7711 18.7741 99.121 18.9578 98.1765 18.984C95.6868 19.0569 93.7628 17.7538 93.7832 15.1009V7.26769H91.7863V4.69937H93.7832V1.3206H97.0978V4.69645H99.8702V7.26769H99.8673Z" fill="#F26727"/>
<path d="M38.4694 27.6102C38.0934 25.4675 36.3938 24.2373 34.2248 24.2373C31.3038 24.2373 29.2456 26.485 29.2456 30.5226C29.2456 34.6301 31.3213 36.8078 34.2161 36.8078C36.353 36.8078 38.0613 35.6271 38.4694 33.5311L41.7316 33.5486C41.2331 36.9652 38.4199 39.7201 34.1724 39.7201C29.4643 39.7201 25.9951 36.3035 25.9951 30.5255C25.9951 24.7387 29.508 21.3308 34.1724 21.3308C38.1313 21.3308 41.1835 23.6397 41.7316 27.6161H38.4694V27.6102Z" fill="#F26727"/>
<path d="M43.0056 32.811C43.0056 28.651 45.4981 25.8698 49.4221 25.8698C53.346 25.8698 55.8385 28.651 55.8385 32.811C55.8385 36.9623 53.346 39.7347 49.4221 39.7347C45.4981 39.7347 43.0056 36.9623 43.0056 32.811ZM52.6376 32.8023C52.6376 30.3447 51.5735 28.3799 49.4366 28.3799C47.2648 28.3799 46.2007 30.3476 46.2007 32.8023C46.2007 35.2569 47.2648 37.1985 49.4366 37.1985C51.5735 37.1985 52.6376 35.2569 52.6376 32.8023Z" fill="#F26727"/>
<path d="M60.6806 39.4694H57.5234V26.0448H60.5407V28.3274H60.6981C61.3074 26.8319 62.6863 25.8698 64.692 25.8698C67.4557 25.8698 69.2864 27.7064 69.2777 30.9219V39.4694H66.1205V31.4117C66.1205 29.6188 65.1439 28.546 63.5143 28.546C61.8496 28.546 60.6806 29.6655 60.6806 31.6041V39.4694Z" fill="#F26727"/>
<path d="M74.6651 39.4694H71.5079V26.0448H74.5252V28.3274H74.6826C75.2919 26.8319 76.6708 25.8698 78.6765 25.8698C81.4402 25.8698 83.2709 27.7064 83.2622 30.9219V39.4694H80.105V31.4117C80.105 29.6188 79.1284 28.546 77.4988 28.546C75.8342 28.546 74.6651 29.6655 74.6651 31.6041V39.4694Z" fill="#F26727"/>
<path d="M84.9209 32.8373C84.9209 28.6947 87.4222 25.8698 91.2586 25.8698C94.5558 25.8698 97.3806 27.9426 97.3806 32.6536V33.6244H88.0519C88.0781 35.9245 89.4308 37.2684 91.4685 37.2684C92.8299 37.2684 93.8736 36.6737 94.3021 35.5368L97.2494 35.8691C96.6926 38.2042 94.547 39.7318 91.4248 39.7318C87.3901 39.7318 84.9209 37.0498 84.9209 32.8373ZM94.3546 31.4904C94.3371 29.6626 93.1156 28.3361 91.3024 28.3361C89.4191 28.3361 88.1539 29.7792 88.0606 31.4904H94.3546Z" fill="#F26727"/>
<path d="M98.4913 32.811C98.4913 28.7122 100.966 25.8698 104.89 25.8698C108.158 25.8698 110.426 27.7851 110.645 30.6946H107.628C107.383 29.4002 106.45 28.4207 104.934 28.4207C102.99 28.4207 101.689 30.0474 101.689 32.7556C101.689 35.5018 102.963 37.1518 104.934 37.1518C106.319 37.1518 107.357 36.321 107.628 34.8779H110.645C110.418 37.7261 108.275 39.7289 104.908 39.7289C100.905 39.7318 98.4913 36.8749 98.4913 32.811Z" fill="#F26727"/>
<path d="M118.948 28.4906H116.306V35.4318C116.306 36.7087 116.942 36.9886 117.738 36.9886C118.131 36.9886 118.487 36.9099 118.662 36.8661L119.192 39.3412C118.851 39.4549 118.233 39.6298 117.335 39.656C114.965 39.726 113.132 38.4841 113.149 35.9595V28.4936H111.248V26.0448H113.149V22.8292H116.306V26.0448H118.948V28.4906Z" fill="#F26727"/>
</svg>
