<svg width="61" height="60" viewBox="0 0 61 60" fill="none" xmlns="http://www.w3.org/2000/svg">
<path opacity="0.4" d="M48.2251 31.47C47.8074 31.471 47.4019 31.33 47.0751 31.07C42.3709 27.2943 36.5195 25.2365 30.4876 25.2365C24.4556 25.2365 18.6042 27.2943 13.9001 31.07C13.507 31.37 13.012 31.504 12.5212 31.4432C12.0305 31.3824 11.5831 31.1318 11.2751 30.745C10.9751 30.3519 10.8411 29.8569 10.9018 29.3662C10.9626 28.8754 11.2133 28.428 11.6001 28.12C16.9479 23.8125 23.6082 21.4638 30.475 21.4638C37.3419 21.4638 44.0022 23.8125 49.3501 28.12C49.5466 28.2689 49.7113 28.4557 49.8344 28.6693C49.9575 28.883 50.0366 29.1191 50.0669 29.3639C50.0972 29.6086 50.0781 29.8569 50.0108 30.0941C49.9435 30.3313 49.8293 30.5526 49.6751 30.745C49.5108 30.9749 49.2928 31.1612 49.0401 31.2875C48.7873 31.4139 48.5075 31.4765 48.2251 31.47Z" fill="#292D32"/>
<path d="M55.5 22.775C55.0824 22.776 54.6768 22.635 54.35 22.375C47.5897 16.9385 39.175 13.9747 30.5 13.9747C21.8249 13.9747 13.4102 16.9385 6.64999 22.375C6.2569 22.675 5.7619 22.8089 5.27116 22.7482C4.78043 22.6874 4.33305 22.4368 4.02499 22.05C3.725 21.6569 3.59102 21.1619 3.65178 20.6712C3.71254 20.1804 3.9632 19.733 4.34999 19.425C11.7639 13.4681 20.9894 10.2209 30.5 10.2209C40.0106 10.2209 49.2361 13.4681 56.65 19.425C56.9563 19.6654 57.1802 19.9952 57.2905 20.3686C57.4009 20.742 57.3923 21.1405 57.2658 21.5088C57.1394 21.8771 56.9015 22.1969 56.585 22.4238C56.2686 22.6507 55.8894 22.7734 55.5 22.775Z" fill="#292D32"/>
<path d="M43.525 40.6C43.1074 40.601 42.7018 40.46 42.375 40.2C39.0088 37.4938 34.8191 36.0185 30.5 36.0185C26.1808 36.0185 21.9912 37.4938 18.625 40.2C18.2319 40.5 17.7369 40.634 17.2462 40.5732C16.7554 40.5125 16.308 40.2618 16 39.875C15.7038 39.4828 15.5721 38.9906 15.6328 38.5029C15.6935 38.0151 15.9418 37.5702 16.325 37.2625C20.3396 34.0348 25.3363 32.2752 30.4875 32.2752C35.6387 32.2752 40.6354 34.0348 44.65 37.2625C44.8465 37.4114 45.0112 37.5982 45.1343 37.8119C45.2575 38.0255 45.3365 38.2617 45.3668 38.5064C45.3971 38.7511 45.378 38.9994 45.3107 39.2366C45.2434 39.4738 45.1293 39.6952 44.975 39.8875C44.8055 40.111 44.5862 40.2919 44.3344 40.4156C44.0827 40.5393 43.8055 40.6024 43.525 40.6Z" fill="#292D32"/>
<path opacity="0.4" d="M37 49.75C36.5824 49.751 36.1769 49.6099 35.85 49.35C34.3314 48.1247 32.4389 47.4564 30.4875 47.4564C28.5362 47.4564 26.6437 48.1247 25.125 49.35C24.7319 49.6499 24.2369 49.7839 23.7462 49.7232C23.2555 49.6624 22.8081 49.4117 22.5 49.025C22.2 48.6319 22.0661 48.1369 22.1268 47.6461C22.1876 47.1554 22.4382 46.708 22.825 46.4C24.9919 44.6528 27.6915 43.7 30.475 43.7C33.2585 43.7 35.9582 44.6528 38.125 46.4C38.3216 46.5489 38.4863 46.7357 38.6094 46.9493C38.7325 47.163 38.8115 47.3991 38.8418 47.6438C38.8721 47.8885 38.8531 48.1368 38.7858 48.3741C38.7185 48.6113 38.6043 48.8326 38.45 49.025C38.2819 49.2508 38.0631 49.434 37.8113 49.5599C37.5594 49.6858 37.2816 49.7509 37 49.75Z" fill="#292D32"/>
</svg>
