<svg width="61" height="60" viewBox="0 0 61 60" fill="none" xmlns="http://www.w3.org/2000/svg">
<g clip-path="url(#clip0_170_293)">
<path opacity="0.4" d="M44.6584 19.4251C44.4843 19.4001 44.3075 19.4001 44.1334 19.4251C42.2345 19.3563 40.4386 18.5448 39.132 17.1652C37.8254 15.7857 37.1127 13.9483 37.1471 12.0485C37.1815 10.1488 37.9603 8.33843 39.316 7.00708C40.6716 5.67574 42.4958 4.92981 44.3959 4.92981C46.296 4.92981 48.1201 5.67574 49.4758 7.00708C50.8314 8.33843 51.6103 10.1488 51.6447 12.0485C51.6791 13.9483 50.9663 15.7857 49.6597 17.1652C48.3532 18.5448 46.5572 19.3563 44.6584 19.4251Z" fill="#292D32"/>
<path opacity="0.4" d="M52.8083 36.75C49.7097 38.6382 46.0477 39.3812 42.4583 38.85C43.4223 36.7386 43.9252 34.446 43.9333 32.125C43.9525 29.7149 43.4044 27.3341 42.3333 25.175C45.9522 24.6182 49.6516 25.3528 52.7833 27.25C53.6706 27.6852 54.4184 28.36 54.9423 29.198C55.4662 30.036 55.7453 31.0039 55.7479 31.9922C55.7505 32.9805 55.4765 33.9499 54.9571 34.7906C54.4376 35.6314 53.6933 36.3101 52.8083 36.75Z" fill="#292D32"/>
<path opacity="0.4" d="M16.9334 19.4251C17.1075 19.4001 17.2843 19.4001 17.4584 19.4251C19.3572 19.3563 21.1531 18.5448 22.4597 17.1652C23.7663 15.7857 24.4791 13.9483 24.4447 12.0485C24.4103 10.1488 23.6314 8.33843 22.2758 7.00708C20.9201 5.67574 19.0959 4.92981 17.1959 4.92981C15.2958 4.92981 13.4716 5.67574 12.116 7.00708C10.7603 8.33843 9.98146 10.1488 9.94705 12.0485C9.91265 13.9483 10.6254 15.7857 11.932 17.1652C13.2386 18.5448 15.0345 19.3563 16.9334 19.4251Z" fill="#292D32"/>
<path opacity="0.4" d="M17.2084 32.125C17.2042 34.4715 17.7074 36.7911 18.6834 38.925C15.2355 39.3416 11.7479 38.5842 8.78338 36.775C7.89444 36.3367 7.14592 35.6583 6.62252 34.8167C6.09911 33.975 5.82172 33.0037 5.82172 32.0125C5.82172 31.0214 6.09911 30.05 6.62252 29.2084C7.14592 28.3667 7.89444 27.6884 8.78338 27.25C11.7761 25.4201 15.3052 24.6701 18.7834 25.125C17.7317 27.3078 17.193 29.7021 17.2084 32.125Z" fill="#292D32"/>
<path d="M31.1333 39.6749C30.9173 39.6499 30.6992 39.6499 30.4833 39.6749C28.7995 39.6092 27.1723 39.0497 25.8041 38.0662C24.4359 37.0826 23.3873 35.7183 22.7886 34.1432C22.19 32.5681 22.0678 30.8517 22.4374 29.2077C22.8069 27.5636 23.6518 26.0646 24.8669 24.8972C26.082 23.7297 27.6136 22.9455 29.2711 22.642C30.9285 22.3385 32.6387 22.5291 34.1886 23.1903C35.7385 23.8514 37.0598 24.9538 37.9879 26.3602C38.916 27.7666 39.4099 29.4149 39.4083 31.0999C39.4172 33.3254 38.5575 35.4665 37.0122 37.0679C35.4668 38.6693 33.3576 39.6046 31.1333 39.6749Z" fill="#292D32"/>
<path d="M23.0058 44.8501C22.1549 45.277 21.4395 45.9321 20.9396 46.7422C20.4397 47.5524 20.1749 48.4856 20.1749 49.4376C20.1749 50.3895 20.4397 51.3227 20.9396 52.1329C21.4395 52.943 22.1549 53.5982 23.0058 54.0251C25.372 55.4362 28.0758 56.1812 30.8308 56.1812C33.5858 56.1812 36.2896 55.4362 38.6558 54.0251C39.5067 53.5982 40.2221 52.943 40.722 52.1329C41.2219 51.3227 41.4867 50.3895 41.4867 49.4376C41.4867 48.4856 41.2219 47.5524 40.722 46.7422C40.2221 45.9321 39.5067 45.277 38.6558 44.8501C36.2896 43.439 33.5858 42.694 30.8308 42.694C28.0758 42.694 25.372 43.439 23.0058 44.8501Z" fill="#292D32"/>
</g>
<defs>
<clipPath id="clip0_170_293">
<rect width="60" height="60" fill="white" transform="translate(0.833313)"/>
</clipPath>
</defs>
</svg>
