<svg width="61" height="60" viewBox="0 0 61 60" fill="none" xmlns="http://www.w3.org/2000/svg">
<path opacity="0.4" d="M47.9999 25.7V43.575C47.9249 50.7 45.9749 52.5 38.5499 52.5H14.9499C7.39988 52.5 5.49988 50.625 5.49988 43.175V25.7C5.49988 18.95 7.07488 16.775 12.9999 16.425C13.5999 16.4 14.2499 16.375 14.9499 16.375H38.5499C46.0999 16.375 47.9999 18.25 47.9999 25.7Z" fill="#292D32"/>
<path d="M55.4999 16.825V34.3C55.4999 41.05 53.9249 43.225 47.9999 43.575V25.7C47.9999 18.25 46.0999 16.375 38.5499 16.375H14.9499C14.2499 16.375 13.5999 16.4 12.9999 16.425C13.0749 9.3 15.0249 7.5 22.4499 7.5H46.0499C53.5999 7.5 55.4999 9.375 55.4999 16.825Z" fill="#292D32"/>
<path d="M17.8999 46.4H13.5999C13.1036 46.3967 12.6286 46.1982 12.2776 45.8472C11.9267 45.4963 11.7281 45.0213 11.7249 44.525C11.7281 44.0288 11.9267 43.5537 12.2776 43.2028C12.6286 42.8519 13.1036 42.6533 13.5999 42.65H17.8999C18.3971 42.65 18.874 42.8476 19.2257 43.1992C19.5773 43.5508 19.7749 44.0277 19.7749 44.525C19.7749 45.0223 19.5773 45.4992 19.2257 45.8508C18.874 46.2025 18.3971 46.4 17.8999 46.4Z" fill="#292D32"/>
<path d="M31.8749 46.4H23.2749C22.7786 46.3967 22.3036 46.1982 21.9527 45.8472C21.6018 45.4963 21.4032 45.0213 21.3999 44.525C21.4032 44.0288 21.6018 43.5537 21.9527 43.2028C22.3036 42.8519 22.7786 42.6533 23.2749 42.65H31.8749C32.3722 42.65 32.8491 42.8476 33.2007 43.1992C33.5524 43.5508 33.7499 44.0277 33.7499 44.525C33.7499 45.0223 33.5524 45.4992 33.2007 45.8508C32.8491 46.2025 32.3722 46.4 31.8749 46.4Z" fill="#292D32"/>
<path d="M5.49988 29.6499H47.9999V33.3999H5.49988V29.6499Z" fill="#292D32"/>
</svg>
