<svg width="61" height="60" viewBox="0 0 61 60" fill="none" xmlns="http://www.w3.org/2000/svg">
<g clip-path="url(#clip0_154_100)">
<path d="M16.9023 45.2111C25.7588 54.0677 38.911 55.3405 46.2296 48.0219C46.464 47.7875 46.5957 47.4695 46.5957 47.138C46.5957 46.8065 46.464 46.4886 46.2296 46.2541L15.8593 15.8839C15.6249 15.6495 15.307 15.5178 14.9754 15.5178C14.6439 15.5178 14.326 15.6495 14.0916 15.8839C6.77301 23.2025 8.0458 36.3546 16.9023 45.2111Z" fill="#A9ABAD"/>
<path d="M51.6865 26.3983C51.4973 26.21 51.3777 25.9629 51.3475 25.6977C50.9279 21.8651 49.2133 18.2902 46.487 15.5639C43.7607 12.8377 40.1858 11.123 36.3532 10.7034C36.0399 10.6613 35.7556 10.4981 35.5613 10.2489C35.367 9.99961 35.2781 9.68411 35.3136 9.37005C35.3557 9.0568 35.5189 8.77251 35.7682 8.57817C36.0174 8.38383 36.3329 8.29492 36.647 8.3305C41.011 8.80073 45.0828 10.7495 48.1865 13.8531C51.2902 16.9568 53.2389 21.0287 53.7091 25.3926C53.7306 25.5488 53.7206 25.7076 53.6797 25.8598C53.6388 26.0121 53.5678 26.1545 53.4709 26.2788C53.374 26.4031 53.2531 26.5067 53.1155 26.5835C52.9779 26.6603 52.8262 26.7088 52.6696 26.726C52.4914 26.7557 52.3087 26.7413 52.1373 26.6842C51.966 26.6271 51.8112 26.5289 51.6865 26.3983Z" fill="#292D32"/>
<path d="M45.4358 28.4005C45.2466 28.2122 45.1271 27.9652 45.0968 27.7C44.7985 24.9554 43.5717 22.395 41.6196 20.4428C39.6674 18.4906 37.107 17.2638 34.3624 16.9655C34.0491 16.9234 33.7648 16.7603 33.5705 16.511C33.3762 16.2617 33.2873 15.9462 33.3228 15.6322C33.3663 15.3211 33.5292 15.0391 33.7771 14.8461C34.0249 14.653 34.3382 14.5642 34.6505 14.5983C37.9239 14.9539 40.9775 16.4171 43.3058 18.7453C45.634 21.0735 47.0971 24.1272 47.4528 27.4005C47.4743 27.5567 47.4643 27.7155 47.4234 27.8678C47.3825 28.02 47.3115 28.1624 47.2145 28.2867C47.1176 28.411 46.9968 28.5146 46.8592 28.5914C46.7215 28.6682 46.5699 28.7167 46.4132 28.7339C46.2356 28.7583 46.0547 28.7409 45.885 28.683C45.7153 28.6251 45.5615 28.5284 45.4358 28.4005Z" fill="#A9ABAD"/>
<path d="M38.3512 29.5869C38.162 29.3987 38.0424 29.1516 38.0122 28.8864C37.8796 27.6462 37.3263 26.4888 36.4443 25.6068C35.5624 24.7248 34.405 24.1715 33.1647 24.0389C32.8515 23.9968 32.5672 23.8337 32.3729 23.5844C32.1785 23.3351 32.0896 23.0197 32.1252 22.7056C32.1673 22.3923 32.3304 22.1081 32.5797 21.9137C32.829 21.7194 33.1445 21.6305 33.4585 21.666C35.2276 21.8557 36.8784 22.6453 38.1365 23.9033C39.3946 25.1614 40.1841 26.8122 40.3738 28.5813C40.3953 28.7374 40.3853 28.8963 40.3444 29.0485C40.3035 29.2007 40.2325 29.3432 40.1356 29.4675C40.0386 29.5918 39.9178 29.6954 39.7802 29.7722C39.6425 29.849 39.4909 29.8974 39.3342 29.9146C39.1562 29.9407 38.9745 29.9246 38.8037 29.8677C38.633 29.8108 38.478 29.7146 38.3512 29.5869Z" fill="#292D32"/>
<circle cx="30.8333" cy="30.5" r="2.75" fill="#D9D9D9" stroke="#292D32" stroke-width="2"/>
</g>
<defs>
<clipPath id="clip0_154_100">
<rect width="60" height="60" fill="white" transform="translate(0.833313)"/>
</clipPath>
</defs>
</svg>
