<svg width="61" height="60" viewBox="0 0 61 60" fill="none" xmlns="http://www.w3.org/2000/svg">
<g clip-path="url(#clip0_154_36)">
<path opacity="0.4" d="M45.5153 30.7504V42.4578C45.4402 44.0292 44.9112 45.5452 43.9924 46.8222C43.0736 48.0993 41.8044 49.0826 40.3384 49.6533L32.763 52.1705C31.1958 52.6216 29.5332 52.6216 27.966 52.1705L20.3907 49.6533C18.9219 49.0867 17.65 48.1044 16.7306 46.8265C15.8112 45.5486 15.2841 44.0305 15.2137 42.4578L15.2375 30.7504L25.7338 37.5896C27.1538 38.4179 28.7681 38.8543 30.412 38.8543C32.0559 38.8543 33.6703 38.4179 35.0902 37.5896L45.5153 30.7504Z" fill="#292D32"/>
<path d="M49.3219 15.5997L35.0902 6.26465C33.6702 5.43641 32.0558 5 30.412 5C28.7681 5 27.1537 5.43641 25.7337 6.26465L11.4379 15.5973C10.3824 16.2845 9.51512 17.2243 8.91477 18.3316C8.31443 19.4388 8 20.6784 8 21.9379C8 23.1974 8.31443 24.4369 8.91477 25.5441C9.51512 26.6514 10.3824 27.5912 11.4379 28.2784L15.2375 30.7481L25.7337 37.5873C27.1537 38.4155 28.7681 38.852 30.412 38.852C32.0558 38.852 33.6702 38.4155 35.0902 37.5873L45.5152 30.7481L48.7686 28.6108V35.8728C48.7686 36.3451 48.9563 36.7981 49.2903 37.1321C49.6243 37.4662 50.0773 37.6538 50.5497 37.6538C51.022 37.6538 51.475 37.4662 51.809 37.1321C52.1431 36.7981 52.3307 36.3451 52.3307 35.8728V24.1938C52.8346 22.6292 52.8133 20.9427 52.2701 19.3913C51.727 17.8398 50.6917 16.5084 49.3219 15.5997Z" fill="#292D32"/>
</g>
<defs>
<clipPath id="clip0_154_36">
<rect width="60" height="60" fill="white" transform="translate(0.5)"/>
</clipPath>
</defs>
</svg>
