<svg width="61" height="60" viewBox="0 0 61 60" fill="none" xmlns="http://www.w3.org/2000/svg">
<path d="M30.1667 46.875C29.6704 46.8717 29.1954 46.6731 28.8445 46.3222C28.4935 45.9713 28.2949 45.4963 28.2917 45V42.5C28.2949 42.0037 28.4935 41.5287 28.8445 41.1778C29.1954 40.8269 29.6704 40.6283 30.1667 40.625C30.6629 40.6283 31.1379 40.8269 31.4889 41.1778C31.8398 41.5287 32.0384 42.0037 32.0417 42.5V45C32.0384 45.4963 31.8398 45.9713 31.4889 46.3222C31.1379 46.6731 30.6629 46.8717 30.1667 46.875Z" fill="#292D32"/>
<path d="M30.1667 56.875C29.6704 56.8717 29.1954 56.6731 28.8445 56.3222C28.4935 55.9713 28.2949 55.4963 28.2917 55V52.5C28.2949 52.0037 28.4935 51.5287 28.8445 51.1778C29.1954 50.8269 29.6704 50.6283 30.1667 50.625C30.6629 50.6283 31.1379 50.8269 31.4889 51.1778C31.8398 51.5287 32.0384 52.0037 32.0417 52.5V55C32.0384 55.4963 31.8398 55.9713 31.4889 56.3222C31.1379 56.6731 30.6629 56.8717 30.1667 56.875Z" fill="#292D32"/>
<path d="M5.16665 56.87C5.01553 56.8657 4.86502 56.849 4.71665 56.82C4.23409 56.6982 3.81905 56.391 3.56161 55.9651C3.30418 55.5391 3.22514 55.0289 3.34165 54.545L5.84165 44.545C5.9686 44.0692 6.27715 43.6622 6.70098 43.4115C7.12481 43.1608 7.63008 43.0864 8.10818 43.2043C8.58629 43.3222 8.99905 43.623 9.25775 44.042C9.51645 44.461 9.60044 44.9647 9.49165 45.445L6.99165 55.445C6.88814 55.8511 6.65279 56.2113 6.32251 56.4692C5.99222 56.7271 5.58569 56.868 5.16665 56.87Z" fill="#292D32"/>
<path d="M55.1666 56.8675C54.7476 56.8655 54.3411 56.7246 54.0108 56.4667C53.6805 56.2088 53.4451 55.8486 53.3416 55.4425L50.8416 45.4425C50.7812 45.2028 50.7689 44.9535 50.8055 44.709C50.842 44.4645 50.9266 44.2297 51.0545 44.0181C51.1824 43.8066 51.3509 43.6225 51.5504 43.4765C51.7499 43.3304 51.9763 43.2254 52.2166 43.1675C52.4563 43.1071 52.7056 43.0948 52.9501 43.1313C53.1946 43.1679 53.4294 43.2525 53.641 43.3804C53.8526 43.5082 54.0367 43.6768 54.1827 43.8763C54.3287 44.0757 54.4337 44.3022 54.4916 44.5425L56.9916 54.5425C57.0521 54.7822 57.0644 55.0315 57.0278 55.276C56.9913 55.5205 56.9066 55.7553 56.7788 55.9669C56.6509 56.1784 56.4823 56.3625 56.2829 56.5085C56.0834 56.6546 55.857 56.7596 55.6166 56.8175C55.4683 56.8465 55.3178 56.8632 55.1666 56.8675Z" fill="#292D32"/>
<path opacity="0.4" d="M48.3163 23.8C48.0413 20.85 47.2663 17.725 41.5413 17.725H18.7913C13.0663 17.725 12.2913 20.875 12.0163 23.8L11.0163 34.65C10.9557 35.3236 11.0355 36.0024 11.2507 36.6435C11.4659 37.2847 11.8117 37.8743 12.2663 38.375C12.7388 38.8849 13.311 39.2923 13.9475 39.5718C14.584 39.8514 15.2711 39.9971 15.9663 40H19.3163C20.18 40.1068 21.0521 39.8826 21.7571 39.3723C22.4622 38.8621 22.9478 38.1038 23.1163 37.25L23.4663 36.175C23.8663 34.95 23.9663 34.65 25.5913 34.65H34.7163C36.3163 34.65 36.3663 34.825 36.8413 36.175L37.1913 37.25C37.3598 38.1048 37.8462 38.8639 38.5523 39.3742C39.2584 39.8846 40.1318 40.1082 40.9963 40H44.3463C45.0415 39.9971 45.7286 39.8514 46.3651 39.5718C47.0016 39.2923 47.5738 38.8849 48.0463 38.375C48.5026 37.8754 48.8495 37.286 49.0647 36.6445C49.28 36.003 49.3589 35.3237 49.2963 34.65L48.3163 23.8Z" fill="#292D32"/>
<path d="M46.2166 12.35H44.4166L43.7416 9.12498C43.6841 8.24116 43.4459 7.37854 43.0417 6.59046C42.6375 5.80239 42.0759 5.10561 41.3917 4.54323C40.7075 3.98085 39.9151 3.56483 39.0637 3.32088C38.2123 3.07694 37.3199 3.01026 36.4416 3.12498H23.9166C23.0384 3.01026 22.146 3.07694 21.2945 3.32088C20.4431 3.56483 19.6508 3.98085 18.9666 4.54323C18.2823 5.10561 17.7208 5.80239 17.3166 6.59046C16.9124 7.37854 16.6741 8.24116 16.6166 9.12498L15.9416 12.35H14.1416C13.7836 12.35 13.4402 12.4922 13.187 12.7454C12.9339 12.9986 12.7916 13.3419 12.7916 13.7C12.7916 14.058 12.9339 14.4014 13.187 14.6546C13.4402 14.9077 13.7836 15.05 14.1416 15.05H15.4166L14.6666 18.625C15.9487 17.9707 17.3787 17.6606 18.8166 17.725H41.5666C43.0048 17.6577 44.4355 17.968 45.7166 18.625L44.9666 15.05H46.2416C46.4191 15.0506 46.5949 15.0162 46.759 14.9486C46.9231 14.881 47.0722 14.7815 47.1977 14.656C47.3232 14.5306 47.4226 14.3815 47.4902 14.2174C47.5578 14.0533 47.5923 13.8774 47.5916 13.7C47.5832 13.3403 47.4348 12.998 47.1781 12.746C46.9213 12.4939 46.5764 12.3518 46.2166 12.35Z" fill="#292D32"/>
<path d="M24.8166 27.525H19.4666C19.1086 27.525 18.7652 27.3827 18.512 27.1296C18.2589 26.8764 18.1166 26.533 18.1166 26.175C18.1166 25.8169 18.2589 25.4735 18.512 25.2204C18.7652 24.9672 19.1086 24.825 19.4666 24.825H24.8166C24.9941 24.8243 25.17 24.8588 25.334 24.9264C25.4981 24.994 25.6472 25.0934 25.7727 25.2189C25.8982 25.3444 25.9976 25.4935 26.0652 25.6576C26.1328 25.8216 26.1673 25.9975 26.1666 26.175C26.1596 26.5308 26.0151 26.8701 25.7634 27.1218C25.5118 27.3734 25.1725 27.5179 24.8166 27.525Z" fill="#292D32"/>
<path d="M40.8667 27.525H35.5167C35.1586 27.525 34.8152 27.3827 34.5621 27.1295C34.3089 26.8764 34.1667 26.533 34.1667 26.175C34.1667 25.8169 34.3089 25.4735 34.5621 25.2204C34.8152 24.9672 35.1586 24.825 35.5167 24.825H40.8667C41.2247 24.825 41.5681 24.9672 41.8212 25.2204C42.0744 25.4735 42.2167 25.8169 42.2167 26.175C42.2167 26.533 42.0744 26.8764 41.8212 27.1295C41.5681 27.3827 41.2247 27.525 40.8667 27.525Z" fill="#292D32"/>
</svg>
