<svg width="61" height="60" viewBox="0 0 61 60" fill="none" xmlns="http://www.w3.org/2000/svg">
<path d="M55.1666 53.125H5.16663C4.67036 53.1283 4.19534 53.3269 3.84442 53.6778C3.4935 54.0287 3.2949 54.5037 3.29163 55C3.2949 55.4963 3.4935 55.9713 3.84442 56.3222C4.19534 56.6731 4.67036 56.8717 5.16663 56.875H55.1666C55.6629 56.8717 56.1379 56.6731 56.4888 56.3222C56.8398 55.9713 57.0383 55.4963 57.0416 55C57.0383 54.5037 56.8398 54.0287 56.4888 53.6778C56.1379 53.3269 55.6629 53.1283 55.1666 53.125Z" fill="#292D32"/>
<path opacity="0.4" d="M42.6666 5H17.6666C10.1666 5 7.66663 9.475 7.66663 15V55H52.6666V15C52.6666 9.475 50.1666 5 42.6666 5Z" fill="#292D32"/>
<path d="M35.3166 37.5001H24.9916C24.3694 37.5033 23.7735 37.752 23.3335 38.192C22.8935 38.632 22.6449 39.2278 22.6416 39.8501V55H37.6416V39.8501C37.6469 39.5421 37.5906 39.2362 37.476 38.9503C37.3614 38.6644 37.1907 38.4043 36.9741 38.1853C36.7574 37.9664 36.4992 37.793 36.2146 37.6753C35.9299 37.5576 35.6246 37.498 35.3166 37.5001Z" fill="#292D32"/>
<path d="M36.4166 19.375H32.0416V15C32.0416 14.5027 31.8441 14.0258 31.4925 13.6742C31.1408 13.3225 30.6639 13.125 30.1666 13.125C29.6693 13.125 29.1924 13.3225 28.8408 13.6742C28.4892 14.0258 28.2916 14.5027 28.2916 15V19.375H23.9166C23.4193 19.375 22.9424 19.5725 22.5908 19.9242C22.2392 20.2758 22.0416 20.7527 22.0416 21.25C22.0416 21.7473 22.2392 22.2242 22.5908 22.5758C22.9424 22.9275 23.4193 23.125 23.9166 23.125H28.2916V27.5C28.2916 27.9973 28.4892 28.4742 28.8408 28.8258C29.1924 29.1775 29.6693 29.375 30.1666 29.375C30.6639 29.375 31.1408 29.1775 31.4925 28.8258C31.8441 28.4742 32.0416 27.9973 32.0416 27.5V23.125H36.4166C36.9139 23.125 37.3908 22.9275 37.7425 22.5758C38.0941 22.2242 38.2916 21.7473 38.2916 21.25C38.2916 20.7527 38.0941 20.2758 37.7425 19.9242C37.3908 19.5725 36.9139 19.375 36.4166 19.375Z" fill="#292D32"/>
</svg>
