<svg width="61" height="60" viewBox="0 0 61 60" fill="none" xmlns="http://www.w3.org/2000/svg">
<g clip-path="url(#clip0_170_254)">
<path d="M55.5 53.125H5.5C5.00373 53.1283 4.52872 53.3269 4.17779 53.6778C3.82687 54.0287 3.62828 54.5037 3.625 55C3.62828 55.4963 3.82687 55.9713 4.17779 56.3222C4.52872 56.6731 5.00373 56.8717 5.5 56.875H55.5C55.9963 56.8717 56.4713 56.6731 56.8222 56.3222C57.1731 55.9713 57.3717 55.4963 57.375 55C57.3717 54.5037 57.1731 54.0287 56.8222 53.6778C56.4713 53.3269 55.9963 53.1283 55.5 53.125Z" fill="#292D32"/>
<path opacity="0.4" d="M43 5H18C10.5 5 8 9.475 8 15V55H53V15C53 9.475 50.5 5 43 5Z" fill="#292D32"/>
<path d="M25.5 43.125H18C17.5037 43.1217 17.0287 42.9231 16.6778 42.5722C16.3269 42.2213 16.1283 41.7463 16.125 41.25C16.1283 40.7537 16.3269 40.2787 16.6778 39.9278C17.0287 39.5769 17.5037 39.3783 18 39.375H25.5C25.9963 39.3783 26.4713 39.5769 26.8222 39.9278C27.1731 40.2787 27.3717 40.7537 27.375 41.25C27.3717 41.7463 27.1731 42.2213 26.8222 42.5722C26.4713 42.9231 25.9963 43.1217 25.5 43.125Z" fill="#292D32"/>
<path d="M43 43.125H35.5C35.0037 43.1217 34.5287 42.9231 34.1778 42.5722C33.8269 42.2213 33.6283 41.7463 33.625 41.25C33.6283 40.7537 33.8269 40.2787 34.1778 39.9278C34.5287 39.5769 35.0037 39.3783 35.5 39.375H43C43.4963 39.3783 43.9713 39.5769 44.3222 39.9278C44.6731 40.2787 44.8717 40.7537 44.875 41.25C44.8717 41.7463 44.6731 42.2213 44.3222 42.5722C43.9713 42.9231 43.4963 43.1217 43 43.125Z" fill="#292D32"/>
<path d="M25.5 31.875H18C17.5037 31.8717 17.0287 31.6731 16.6778 31.3222C16.3269 30.9713 16.1283 30.4963 16.125 30C16.1283 29.5037 16.3269 29.0287 16.6778 28.6778C17.0287 28.3269 17.5037 28.1283 18 28.125H25.5C25.9963 28.1283 26.4713 28.3269 26.8222 28.6778C27.1731 29.0287 27.3717 29.5037 27.375 30C27.3717 30.4963 27.1731 30.9713 26.8222 31.3222C26.4713 31.6731 25.9963 31.8717 25.5 31.875Z" fill="#292D32"/>
<path d="M43 31.875H35.5C35.0037 31.8717 34.5287 31.6731 34.1778 31.3222C33.8269 30.9713 33.6283 30.4963 33.625 30C33.6283 29.5037 33.8269 29.0287 34.1778 28.6778C34.5287 28.3269 35.0037 28.1283 35.5 28.125H43C43.4963 28.1283 43.9713 28.3269 44.3222 28.6778C44.6731 29.0287 44.8717 29.5037 44.875 30C44.8717 30.4963 44.6731 30.9713 44.3222 31.3222C43.9713 31.6731 43.4963 31.8717 43 31.875Z" fill="#292D32"/>
<path d="M25.5 20.625H18C17.5037 20.6217 17.0287 20.4231 16.6778 20.0722C16.3269 19.7213 16.1283 19.2463 16.125 18.75C16.1283 18.2537 16.3269 17.7787 16.6778 17.4278C17.0287 17.0769 17.5037 16.8783 18 16.875H25.5C25.9963 16.8783 26.4713 17.0769 26.8222 17.4278C27.1731 17.7787 27.3717 18.2537 27.375 18.75C27.3717 19.2463 27.1731 19.7213 26.8222 20.0722C26.4713 20.4231 25.9963 20.6217 25.5 20.625Z" fill="#292D32"/>
<path d="M43 20.625H35.5C35.0037 20.6217 34.5287 20.4231 34.1778 20.0722C33.8269 19.7213 33.6283 19.2463 33.625 18.75C33.6283 18.2537 33.8269 17.7787 34.1778 17.4278C34.5287 17.0769 35.0037 16.8783 35.5 16.875H43C43.4963 16.8783 43.9713 17.0769 44.3222 17.4278C44.6731 17.7787 44.8717 18.2537 44.875 18.75C44.8717 19.2463 44.6731 19.7213 44.3222 20.0722C43.9713 20.4231 43.4963 20.6217 43 20.625Z" fill="#292D32"/>
</g>
<defs>
<clipPath id="clip0_170_254">
<rect width="60" height="60" fill="white" transform="translate(0.5)"/>
</clipPath>
</defs>
</svg>
