<svg width="61" height="60" viewBox="0 0 61 60" fill="none" xmlns="http://www.w3.org/2000/svg">
<path opacity="0.4" d="M51.1917 17.4001V24.5076L18.6667 48.3501L12.0917 43.4251C11.2254 42.6986 10.5169 41.8027 10.0096 40.7924C9.5023 39.7821 9.20694 38.6787 9.14166 37.5501L9.14166 17.4001C9.2143 15.922 9.70035 14.4941 10.5445 13.2787C11.3887 12.0633 12.557 11.1092 13.9167 10.5251L27.5917 5.40006C29.2682 4.87511 31.0651 4.87511 32.7417 5.40006L46.4167 10.5251C47.7763 11.1092 48.9447 12.0633 49.7888 13.2787C50.633 14.4941 51.119 15.922 51.1917 17.4001Z" fill="#292D32"/>
<path d="M51.1917 27.925V37.55C51.1264 38.6787 50.831 39.7821 50.3237 40.7924C49.8164 41.8027 49.1079 42.6986 48.2417 43.425L34.5667 53.6501C33.2807 54.5561 31.7395 55.029 30.1667 55.0001C28.5938 55.029 27.0526 54.5561 25.7667 53.6501L20.9667 50.0751L51.1917 27.925Z" fill="#292D32"/>
</svg>
