<svg width="61" height="60" viewBox="0 0 61 60" fill="none" xmlns="http://www.w3.org/2000/svg">
<g clip-path="url(#clip0_154_58)">
<path d="M40.8591 28.5937C40.4252 28.5937 40.009 28.4213 39.7021 28.1145C39.3953 27.8076 39.2229 27.3914 39.2229 26.9575C38.9264 25.4923 38.1929 24.1513 37.1191 23.1112C36.1521 21.8984 34.7485 21.1127 33.2091 20.9225C32.7752 20.9225 32.359 20.7501 32.0521 20.4432C31.7453 20.1364 31.5729 19.7202 31.5729 19.2862C31.5729 18.8523 31.7453 18.4361 32.0521 18.1292C32.359 17.8224 32.7752 17.65 33.2091 17.65C34.423 17.7321 35.6078 18.0587 36.6923 18.6101C37.7768 19.1615 38.7388 19.9263 39.5204 20.8587C41.194 22.4755 42.2533 24.6241 42.5166 26.9362C42.5161 27.3756 42.3412 27.7969 42.0305 28.1076C41.7198 28.4183 41.2985 28.5931 40.8591 28.5937Z" fill="#292D32"/>
<path d="M48.5304 28.5937C48.0964 28.5937 47.6803 28.4213 47.3734 28.1145C47.0665 27.8076 46.8941 27.3914 46.8941 26.9575C46.8896 23.335 45.4486 19.8622 42.8872 17.3007C40.3257 14.7393 36.8529 13.2982 33.2304 13.2937C33.0141 13.2951 32.7997 13.2539 32.5994 13.1725C32.399 13.091 32.2167 12.9708 32.0628 12.8189C31.7519 12.512 31.5757 12.0943 31.5729 11.6575C31.5701 11.2207 31.7409 10.8007 32.0478 10.4899C32.3546 10.179 32.7724 10.0028 33.2092 10C37.705 10.0051 42.0153 11.7933 45.1943 14.9723C48.3734 18.1514 50.1616 22.4616 50.1666 26.9575C50.1628 27.3902 49.9891 27.8042 49.6831 28.1102C49.3771 28.4162 48.9632 28.5899 48.5304 28.5937Z" fill="#292D32"/>
<path opacity="0.4" d="M28.4706 35.9463L21.5218 42.895C20.7569 42.215 20.0131 41.5138 19.2906 40.7913C17.1417 38.628 15.1598 36.3051 13.3619 33.8425C11.7105 31.5881 10.3137 29.1579 9.19686 26.5963C8.22698 24.4057 7.7067 22.0428 7.66686 19.6475C7.65772 18.2441 7.9174 16.852 8.43186 15.5463C8.97234 14.1963 9.80721 12.984 10.8756 11.9975C11.4412 11.3858 12.1239 10.8938 12.8831 10.5507C13.6423 10.2076 14.4627 10.0203 15.2956 10C15.8907 9.99767 16.4788 10.1284 17.0169 10.3825C17.5908 10.6423 18.0831 11.0538 18.4406 11.5725L23.3706 18.5213C23.7116 18.9819 23.9969 19.4812 24.2206 20.0088C24.4052 20.4167 24.5063 20.8574 24.5181 21.305C24.5121 21.8396 24.3576 22.3619 24.0718 22.8138C23.7441 23.3674 23.3439 23.8748 22.8818 24.3225L21.2669 26.0013C21.1544 26.1116 21.066 26.2442 21.0075 26.3905C20.949 26.5369 20.9215 26.6938 20.9268 26.8513C20.9271 27.0162 20.9485 27.1805 20.9906 27.34C21.0543 27.51 21.1181 27.6375 21.1606 27.765C21.7312 28.7325 22.393 29.6433 23.1368 30.485C24.0931 31.59 25.1131 32.7163 26.2181 33.8425C26.9831 34.5863 27.7268 35.3088 28.4706 35.9463Z" fill="#292D32"/>
<path d="M50.1028 44.7012C50.1003 45.317 49.9925 45.9279 49.784 46.5074C49.7223 46.6811 49.6513 46.8513 49.5715 47.0174C49.2005 47.8078 48.7134 48.5384 48.1265 49.1849C47.1695 50.2737 45.9779 51.131 44.6415 51.6924C44.6203 51.6924 44.599 51.7137 44.5778 51.7137C43.2819 52.2389 41.896 52.506 40.4978 52.4999C38.1076 52.4557 35.7511 51.928 33.5703 50.9487C30.9825 49.8269 28.5301 48.4154 26.2603 46.7412C25.4315 46.1249 24.6028 45.5087 23.8165 44.8499L30.7653 37.9012C31.2619 38.2819 31.7877 38.6229 32.3378 38.9212C32.444 38.9637 32.5715 39.0274 32.7203 39.0912C32.8906 39.152 33.0707 39.1809 33.2515 39.1762C33.4139 39.1798 33.5752 39.1495 33.7252 39.0873C33.8752 39.0251 34.0106 38.9324 34.1228 38.8149L35.7378 37.2212C36.1856 36.7505 36.7013 36.3494 37.2678 36.0312C37.7184 35.7428 38.2415 35.5881 38.7765 35.5849C39.2225 35.5911 39.663 35.685 40.0728 35.8612C40.596 36.0852 41.0945 36.3629 41.5603 36.6899L48.594 41.6837C49.1044 42.0173 49.5096 42.4889 49.7628 43.0437C49.9832 43.5687 50.0987 44.1318 50.1028 44.7012Z" fill="#292D32"/>
</g>
<defs>
<clipPath id="clip0_154_58">
<rect width="60" height="60" fill="white" transform="translate(0.166626)"/>
</clipPath>
</defs>
</svg>
