<svg width="61" height="60" viewBox="0 0 61 60" fill="none" xmlns="http://www.w3.org/2000/svg">
<path opacity="0.4" d="M55.5 22.5V37.5C55.5 46.25 50.5 50 43 50H21.625C22.5263 48.488 23.0014 46.7602 23 45C22.9971 42.97 22.3764 40.989 21.2205 39.3202C20.0646 37.6515 18.4282 36.374 16.5288 35.6577C14.6294 34.9413 12.557 34.82 10.587 35.3099C8.61698 35.7997 6.84271 36.8775 5.5 38.4L5.5 22.5C5.5 13.75 10.5 10 18 10H43C50.5 10 55.5 13.75 55.5 22.5Z" fill="#292D32"/>
<path d="M36.75 30C36.75 31.2361 36.3834 32.4445 35.6967 33.4723C35.0099 34.5001 34.0338 35.3012 32.8918 35.7742C31.7497 36.2473 30.4931 36.3711 29.2807 36.1299C28.0683 35.8888 26.9547 35.2935 26.0806 34.4194C25.2065 33.5453 24.6113 32.4317 24.3701 31.2193C24.1289 30.0069 24.2527 28.7503 24.7258 27.6082C25.1988 26.4662 25.9999 25.4901 27.0277 24.8033C28.0555 24.1166 29.2639 23.75 30.5 23.75C32.1576 23.75 33.7473 24.4085 34.9194 25.5806C36.0915 26.7527 36.75 28.3424 36.75 30Z" fill="#292D32"/>
<path d="M46.75 36.875C46.2537 36.8717 45.7787 36.6731 45.4278 36.3222C45.0769 35.9713 44.8783 35.4963 44.875 35V25C44.8783 24.5037 45.0769 24.0287 45.4278 23.6778C45.7787 23.3269 46.2537 23.1283 46.75 23.125C47.2463 23.1283 47.7213 23.3269 48.0722 23.6778C48.4231 24.0287 48.6217 24.5037 48.625 25V35C48.6217 35.4963 48.4231 35.9713 48.0722 36.3222C47.7213 36.6731 47.2463 36.8717 46.75 36.875Z" fill="#292D32"/>
<path d="M13 35C10.3479 35 7.80431 36.0536 5.92895 37.9289C4.05359 39.8043 3.00002 42.3478 3.00002 45C2.99646 46.8179 3.49849 48.601 4.45002 50.15C5.33429 51.6285 6.58684 52.8524 8.08539 53.7023C9.58394 54.5522 11.2773 54.9989 13 54.9989C14.7228 54.9989 16.4161 54.5522 17.9146 53.7023C19.4132 52.8524 20.6658 51.6285 21.55 50.15C22.5015 48.601 23.0036 46.8179 23 45C23 42.3478 21.9465 39.8043 20.0711 37.9289C18.1957 36.0536 15.6522 35 13 35ZM17.925 44.175L12.6 49.1C12.2516 49.4188 11.7973 49.5969 11.325 49.6C11.0787 49.6009 10.8347 49.5527 10.6072 49.4583C10.3797 49.3638 10.1733 49.2251 10 49.05L7.52502 46.575C7.19382 46.2196 7.01351 45.7494 7.02208 45.2637C7.03065 44.7779 7.22743 44.3145 7.57096 43.9709C7.9145 43.6274 8.37796 43.4306 8.86371 43.4221C9.34947 43.4135 9.81958 43.5938 10.175 43.925L11.375 45.125L15.375 41.425C15.5556 41.2576 15.7674 41.1273 15.9983 41.0417C16.2292 40.9562 16.4747 40.9169 16.7207 40.9262C16.9668 40.9355 17.2086 40.9931 17.4324 41.0959C17.6562 41.1986 17.8576 41.3444 18.025 41.525C18.1925 41.7056 18.3227 41.9173 18.4083 42.1482C18.4939 42.3791 18.5331 42.6246 18.5239 42.8707C18.5146 43.1168 18.4569 43.3586 18.3542 43.5824C18.2514 43.8062 18.1056 44.0076 17.925 44.175Z" fill="#292D32"/>
</svg>
