<svg width="61" height="60" viewBox="0 0 61 60" fill="none" xmlns="http://www.w3.org/2000/svg">
<path opacity="0.4" d="M41.4333 5H20.2333C13.3333 5 10.8333 7.5 10.8333 14.525V45.475C10.8333 52.5 13.3333 55 20.2333 55H41.4083C48.3333 55 50.8333 52.5 50.8333 45.475V14.525C50.8333 7.5 48.3333 5 41.4333 5Z" fill="#292D32"/>
<path d="M35.8333 15.625H25.8333C25.337 15.6217 24.862 15.4231 24.5111 15.0722C24.1602 14.7213 23.9616 14.2463 23.9583 13.75C23.9616 13.2537 24.1602 12.7787 24.5111 12.4278C24.862 12.0769 25.337 11.8783 25.8333 11.875H35.8333C36.3296 11.8783 36.8046 12.0769 37.1555 12.4278C37.5064 12.7787 37.705 13.2537 37.7083 13.75C37.705 14.2463 37.5064 14.7213 37.1555 15.0722C36.8046 15.4231 36.3296 15.6217 35.8333 15.625Z" fill="#292D32"/>
<path d="M35.2083 43.875C35.2083 44.7403 34.9517 45.5861 34.471 46.3056C33.9903 47.0251 33.307 47.5858 32.5076 47.9169C31.7081 48.2481 30.8285 48.3347 29.9798 48.1659C29.1311 47.9971 28.3516 47.5804 27.7397 46.9686C27.1279 46.3567 26.7112 45.5772 26.5424 44.7285C26.3736 43.8798 26.4602 43.0002 26.7913 42.2007C27.1225 41.4013 27.6832 40.718 28.4027 40.2373C29.1222 39.7566 29.968 39.5 30.8333 39.5C31.9936 39.5 33.1064 39.9609 33.9269 40.7814C34.7474 41.6018 35.2083 42.7146 35.2083 43.875Z" fill="#292D32"/>
</svg>
