<svg width="61" height="60" viewBox="0 0 61 60" fill="none" xmlns="http://www.w3.org/2000/svg">
<path opacity="0.4" d="M43.7167 3.44976C43.4628 3.27765 43.171 3.16955 42.8662 3.13472C42.5615 3.0999 42.2528 3.13937 41.9667 3.24976C38.4039 4.67475 34.4295 4.67475 30.8667 3.24976C30.5805 3.13937 30.2718 3.0999 29.9671 3.13472C29.6623 3.16955 29.3706 3.27765 29.1167 3.44976C28.8612 3.61924 28.652 3.84971 28.508 4.12033C28.3639 4.39095 28.2896 4.6932 28.2917 4.99976V19.9998C28.2949 20.496 28.4935 20.971 28.8445 21.322C29.1954 21.6729 29.6704 21.8715 30.1667 21.8748C30.6629 21.8715 31.138 21.6729 31.4889 21.322C31.8398 20.971 32.0384 20.496 32.0417 19.9998V15.0498C33.473 15.4063 34.9417 15.5909 36.4167 15.5998C38.7982 15.5969 41.1572 15.1387 43.3667 14.2498C43.7148 14.1086 44.0127 13.8665 44.2221 13.5546C44.4315 13.2428 44.5428 12.8754 44.5417 12.4998V4.99976C44.5438 4.6932 44.4694 4.39095 44.3254 4.12033C44.1813 3.84971 43.9721 3.61924 43.7167 3.44976Z" fill="#292D32"/>
<path d="M55.1666 53.1249H52.0416V27.4999C52.1894 26.2331 52.0486 24.9492 51.6297 23.7445C51.2108 22.5398 50.5248 21.4455 49.6229 20.5437C48.721 19.6418 47.6267 18.9557 46.422 18.5368C45.2173 18.118 43.9335 17.9771 42.6666 18.1249H17.6666C16.3998 17.9771 15.1159 18.118 13.9112 18.5368C12.7065 18.9557 11.6122 19.6418 10.7104 20.5437C9.8085 21.4455 9.12242 22.5398 8.70353 23.7445C8.28465 24.9492 8.14383 26.2331 8.29163 27.4999V53.1249H5.16663C4.66935 53.1249 4.19243 53.3225 3.8408 53.6741C3.48917 54.0257 3.29163 54.5027 3.29163 54.9999C3.29163 55.4972 3.48917 55.9741 3.8408 56.3258C4.19243 56.6774 4.66935 56.8749 5.16663 56.8749H55.1666C55.6639 56.8749 56.1408 56.6774 56.4925 56.3258C56.8441 55.9741 57.0416 55.4972 57.0416 54.9999C57.0416 54.5027 56.8441 54.0257 56.4925 53.6741C56.1408 53.3225 55.6639 53.1249 55.1666 53.1249ZM48.2916 31.8749V53.1249H42.0166V31.8749H48.2916ZM28.2666 53.1249H22.0166V31.8749H28.2666V53.1249ZM32.0166 31.8749H38.2666V53.1249H32.0166V31.8749ZM12.0416 31.8749H18.2666V53.1249H12.0416V31.8749Z" fill="#292D32"/>
</svg>
