<svg width="61" height="60" viewBox="0 0 61 60" fill="none" xmlns="http://www.w3.org/2000/svg">
<path opacity="0.4" d="M27.0582 5.57501L14.5832 10.2425C13.0927 10.887 11.813 11.9367 10.8894 13.2722C9.96572 14.6077 9.43523 16.1755 9.35815 17.7975L9.35815 36.3725C9.45549 38.0249 9.88931 39.6401 10.633 41.1189C11.3767 42.5977 12.4147 43.9091 13.6832 44.9725L24.4332 52.9975C26.3257 54.2921 28.5652 54.9848 30.8582 54.9848C33.1511 54.9848 35.3906 54.2921 37.2832 52.9975L48.0332 44.9725C49.3017 43.9091 50.3396 42.5977 51.0833 41.1189C51.827 39.6401 52.2608 38.0249 52.3582 36.3725V17.7975C52.2811 16.1755 51.7506 14.6077 50.8269 13.2722C49.9033 11.9367 48.6236 10.887 47.1332 10.2425L34.6582 5.57501C32.1841 4.80003 29.5322 4.80003 27.0582 5.57501Z" fill="#292D32"/>
<path d="M30.5832 28.2501H30.8332C31.8801 28.2089 32.8917 27.8607 33.7421 27.2487C34.5925 26.6368 35.2441 25.7883 35.6158 24.8088C35.9875 23.8293 36.0629 22.7621 35.8325 21.74C35.6021 20.718 35.0762 19.7863 34.3202 19.061C33.5643 18.3356 32.6116 17.8487 31.5809 17.6608C30.5502 17.4729 29.4871 17.5923 28.5238 18.0042C27.5605 18.4161 26.7396 19.1023 26.1634 19.9773C25.5872 20.8523 25.2811 21.8774 25.2832 22.9251C25.3037 24.3267 25.8679 25.6655 26.8567 26.659C27.8456 27.6525 29.1817 28.223 30.5832 28.2501Z" fill="#292D32"/>
<path d="M36.3082 33.525C34.6462 32.543 32.7511 32.025 30.8207 32.025C28.8902 32.025 26.9952 32.543 25.3332 33.525C24.6876 33.9123 24.147 34.4523 23.759 35.0974C23.3711 35.7426 23.1475 36.4732 23.1082 37.225C23.1398 37.9753 23.3604 38.7055 23.7493 39.3479C24.1383 39.9903 24.683 40.5242 25.3332 40.9C26.9752 41.9204 28.875 42.4496 30.8082 42.425C32.7433 42.4649 34.6473 41.9346 36.2832 40.9C36.9288 40.5128 37.4693 39.9728 37.8573 39.3276C38.2453 38.6825 38.4688 37.9518 38.5082 37.2C38.4872 36.4503 38.2739 35.7185 37.8886 35.0749C37.5034 34.4313 36.9591 33.8976 36.3082 33.525Z" fill="#292D32"/>
</svg>
