<svg width="61" height="60" viewBox="0 0 61 60" fill="none" xmlns="http://www.w3.org/2000/svg">
<g clip-path="url(#clip0_154_75)">
<path d="M43.2169 25.492C42.8159 20.2722 40.3856 17.0011 38.2416 14.1146C36.2563 11.4423 34.5417 9.13458 34.5417 5.73042C34.5417 5.45698 34.3885 5.20706 34.1457 5.08175C33.9022 4.9557 33.6095 4.97634 33.3881 5.13726C30.1681 7.44138 27.4814 11.3248 26.5429 15.0302C25.8914 17.6098 25.8052 20.5099 25.7931 22.4253C22.8195 21.7902 22.1458 17.3421 22.1387 17.2937C22.1052 17.063 21.9643 16.8622 21.7592 16.7525C21.552 16.6443 21.3084 16.6365 21.0984 16.7404C20.9424 16.8159 17.2709 18.6814 17.0573 26.1299C17.0423 26.3778 17.0417 26.6263 17.0417 26.8748C17.0417 34.1111 22.9298 39.9989 30.1667 39.9989C30.1766 39.9996 30.1873 40.001 30.1958 39.9989C30.1987 39.9989 30.2015 39.9989 30.2051 39.9989C37.4242 39.9782 43.2917 34.0983 43.2917 26.8748C43.2917 26.5109 43.2169 25.492 43.2169 25.492ZM30.1667 38.5407C27.7541 38.5407 25.7917 36.4502 25.7917 33.8805C25.7917 33.7929 25.791 33.7046 25.7973 33.5964C25.8265 32.5127 26.0323 31.7729 26.2581 31.2808C26.6811 32.1894 27.4373 33.0246 28.6656 33.0246C29.0687 33.0246 29.3948 32.6985 29.3948 32.2955C29.3948 31.2574 29.4162 30.0597 29.6747 28.9788C29.9047 28.0204 30.4544 27.0008 31.1508 26.1834C31.4606 27.2443 32.0644 28.103 32.654 28.9411C33.4979 30.1401 34.3701 31.3798 34.5233 33.4938C34.5325 33.6191 34.5418 33.7452 34.5418 33.8805C34.5417 36.4501 32.5792 38.5407 30.1667 38.5407Z" fill="#A9ABAD"/>
</g>
<rect x="10.1667" y="50.4545" width="40.9091" height="4.54545" rx="2.27273" fill="#181A22"/>
<path d="M14.7121 49.9091C14.7121 47.6999 16.503 45.9091 18.7121 45.9091H42.5303C44.7394 45.9091 46.5303 47.6999 46.5303 49.9091V50.4545H14.7121V49.9091Z" fill="#181A22"/>
<defs>
<clipPath id="clip0_154_75">
<rect width="35" height="35" fill="white" transform="translate(12.6667 5)"/>
</clipPath>
</defs>
</svg>
