<svg width="61" height="60" viewBox="0 0 61 60" fill="none" xmlns="http://www.w3.org/2000/svg">
<path opacity="0.4" d="M55.8333 22.5V37.5C55.8333 46.25 50.8333 50 43.3333 50H25.1833C25.6173 48.7975 25.8373 47.5284 25.8333 46.25C25.829 43.9254 25.1046 41.6591 23.7598 39.763C22.415 37.8668 20.5158 36.4338 18.3234 35.6609C16.131 34.8881 13.753 34.8134 11.5164 35.4472C9.27979 36.0809 7.29444 37.3919 5.83331 39.2L5.83331 22.5C5.83331 13.75 10.8333 10 18.3333 10H43.3333C50.8333 10 55.8333 13.75 55.8333 22.5Z" fill="#292D32"/>
<path d="M37.0833 30C37.0833 31.2361 36.7168 32.4445 36.03 33.4723C35.3432 34.5001 34.3671 35.3012 33.2251 35.7742C32.0831 36.2473 30.8264 36.3711 29.614 36.1299C28.4016 35.8888 27.288 35.2935 26.4139 34.4194C25.5398 33.5453 24.9446 32.4317 24.7034 31.2193C24.4623 30.0069 24.586 28.7503 25.0591 27.6082C25.5321 26.4662 26.3332 25.4901 27.361 24.8033C28.3888 24.1166 29.5972 23.75 30.8333 23.75C32.4909 23.75 34.0806 24.4085 35.2527 25.5806C36.4248 26.7527 37.0833 28.3424 37.0833 30Z" fill="#292D32"/>
<path d="M47.0833 36.875C46.587 36.8717 46.112 36.6731 45.7611 36.3222C45.4102 35.9713 45.2116 35.4963 45.2083 35V25C45.2116 24.5037 45.4102 24.0287 45.7611 23.6778C46.112 23.3269 46.587 23.1283 47.0833 23.125C47.5796 23.1283 48.0546 23.3269 48.4055 23.6778C48.7564 24.0287 48.955 24.5037 48.9583 25V35C48.955 35.4963 48.7564 35.9713 48.4055 36.3222C48.0546 36.6731 47.5796 36.8717 47.0833 36.875Z" fill="#292D32"/>
<path d="M14.5834 35C12.9039 35.0025 11.2463 35.3811 9.73217 36.1079C8.21806 36.8346 6.88588 37.8912 5.8334 39.2C4.20729 41.1887 3.32347 43.6811 3.3334 46.25C3.33777 48.9005 4.27786 51.4644 5.9879 53.4895C7.69793 55.5147 10.0681 56.871 12.6804 57.3193C15.2928 57.7677 17.9795 57.2792 20.2669 55.9402C22.5543 54.6011 24.2955 52.4974 25.1834 50C25.6173 48.7975 25.8373 47.5284 25.8334 46.25C25.8334 43.2663 24.6481 40.4048 22.5383 38.295C20.4286 36.1853 17.5671 35 14.5834 35ZM21.2334 51.15C21.1571 51.3145 21.0559 51.4663 20.9334 51.6L18.9084 53.6C18.7869 53.7295 18.6395 53.832 18.4759 53.9009C18.3122 53.9698 18.1359 54.0036 17.9584 54C17.7768 54.0062 17.596 53.9737 17.4279 53.9048C17.2598 53.8358 17.1083 53.7319 16.9834 53.6C16.7754 53.395 16.6407 53.1272 16.6001 52.8381C16.5594 52.5489 16.6151 52.2544 16.7584 52H11.1084C10.2369 51.9954 9.4028 51.6454 8.7889 51.0268C8.17501 50.4082 7.8314 49.5715 7.8334 48.7V48.425C7.8334 48.0603 7.97826 47.7106 8.23612 47.4527C8.49399 47.1949 8.84372 47.05 9.2084 47.05C9.57307 47.05 9.92281 47.1949 10.1807 47.4527C10.4385 47.7106 10.5834 48.0603 10.5834 48.425V48.7C10.5814 48.7707 10.5934 48.841 10.6188 48.907C10.6442 48.973 10.6824 49.0333 10.7312 49.0845C10.78 49.1356 10.8385 49.1766 10.9032 49.205C10.968 49.2334 11.0377 49.2487 11.1084 49.25H16.7584C16.5974 48.9633 16.5458 48.6279 16.613 48.306C16.6803 47.9841 16.8619 47.6975 17.1242 47.4992C17.3866 47.301 17.7119 47.2045 18.0399 47.2276C18.3679 47.2507 18.6765 47.3919 18.9084 47.625L20.9334 49.65C21.0613 49.7794 21.1632 49.9321 21.2334 50.1C21.3583 50.4388 21.3583 50.8112 21.2334 51.15ZM21.3334 44.075C21.3334 44.4397 21.1885 44.7894 20.9307 45.0473C20.6728 45.3051 20.3231 45.45 19.9584 45.45C19.5937 45.45 19.244 45.3051 18.9861 45.0473C18.7283 44.7894 18.5834 44.4397 18.5834 44.075V43.8C18.5854 43.7293 18.5734 43.659 18.548 43.593C18.5226 43.527 18.4844 43.4667 18.4356 43.4155C18.3868 43.3644 18.3283 43.3234 18.2636 43.295C18.1988 43.2666 18.1291 43.2513 18.0584 43.25H12.4084C12.5694 43.5367 12.621 43.8721 12.5538 44.194C12.4865 44.5159 12.3049 44.8025 12.0425 45.0008C11.7802 45.199 11.4549 45.2955 11.1269 45.2724C10.7989 45.2493 10.4903 45.1081 10.2584 44.875L8.2334 42.85C8.10544 42.7206 8.00359 42.5679 7.9334 42.4C7.80845 42.0612 7.80845 41.6888 7.9334 41.35C8.00972 41.1855 8.1109 41.0337 8.2334 40.9L10.2584 38.9C10.4873 38.6666 10.7931 38.524 11.119 38.4987C11.445 38.4733 11.7691 38.5669 12.0314 38.7621C12.2936 38.9573 12.4763 39.2409 12.5457 39.5604C12.615 39.8799 12.5662 40.2137 12.4084 40.5H18.0584C18.9299 40.5046 19.764 40.8546 20.3779 41.4732C20.9918 42.0918 21.3354 42.9285 21.3334 43.8V44.075Z" fill="#292D32"/>
</svg>
