<svg width="61" height="60" viewBox="0 0 61 60" fill="none" xmlns="http://www.w3.org/2000/svg">
<path opacity="0.4" d="M37.6667 5H22.6667C20.6775 5 18.7699 5.79018 17.3634 7.1967C15.9568 8.60322 15.1667 10.5109 15.1667 12.5L15.1667 47.5C15.1667 49.4891 15.9568 51.3968 17.3634 52.8033C18.7699 54.2098 20.6775 55 22.6667 55H37.6667C39.6558 55 41.5634 54.2098 42.97 52.8033C44.3765 51.3968 45.1667 49.4891 45.1667 47.5V12.5C45.1667 10.5109 44.3765 8.60322 42.97 7.1967C41.5634 5.79018 39.6558 5 37.6667 5Z" fill="#292D32"/>
<path d="M46.8417 13.325H45.9917C45.6917 13.325 45.4167 13.325 45.1167 13.35C45.1472 13.4812 45.1639 13.6152 45.1667 13.75V46.2499C45.1639 46.3847 45.1472 46.5187 45.1167 46.6499C45.3917 46.6749 45.6667 46.6749 45.9917 46.6749H46.8417C53.4917 46.6749 55.1667 44.9999 55.1667 38.3249V21.675C55.1667 15 53.4917 13.325 46.8417 13.325Z" fill="#292D32"/>
<path d="M15.1667 46.2499V13.75C15.1694 13.6152 15.1862 13.4812 15.2167 13.35C14.9167 13.325 14.6417 13.325 14.3417 13.325H13.4917C6.84166 13.325 5.16666 15 5.16666 21.675V38.3249C5.16666 44.9999 6.84166 46.6749 13.4917 46.6749H14.3417C14.6417 46.6749 14.9167 46.6749 15.2167 46.6499C15.1862 46.5187 15.1694 46.3847 15.1667 46.2499Z" fill="#292D32"/>
</svg>
