<svg width="61" height="60" viewBox="0 0 61 60" fill="none" xmlns="http://www.w3.org/2000/svg">
<path opacity="0.4" d="M55.4999 30C55.4999 34.9445 54.0337 39.778 51.2866 43.8893C48.5396 48.0005 44.6351 51.2048 40.067 53.097C35.4988 54.9892 30.4722 55.4843 25.6226 54.5196C20.7731 53.555 16.3185 51.174 12.8222 47.6777C9.32591 44.1814 6.94489 39.7268 5.98026 34.8773C5.01563 30.0277 5.51071 25.0011 7.4029 20.4329C9.29509 15.8648 12.4994 11.9603 16.6106 9.21326C20.7219 6.46622 25.5554 5 30.4999 5C37.1303 5 43.4891 7.63392 48.1776 12.3223C52.866 17.0107 55.4999 23.3696 55.4999 30Z" fill="#292D32"/>
<path d="M33.0375 16.41C32.7172 16.0812 32.3343 15.8198 31.9113 15.6413C31.4884 15.4629 31.034 15.3709 30.575 15.3709C30.1159 15.3709 29.6615 15.4629 29.2386 15.6413C28.8157 15.8198 28.4327 16.0812 28.1125 16.41C26.5725 18.025 18.955 26.6425 18.955 33.12C18.955 36.1813 20.171 39.1171 22.3357 41.2818C24.5003 43.4464 27.4362 44.6625 30.4975 44.6625C33.5587 44.6625 36.4946 43.4464 38.6592 41.2818C40.8239 39.1171 42.04 36.1813 42.04 33.12C42.1175 26.6425 34.5775 18.1025 33.0375 16.41Z" fill="#292D32"/>
</svg>
