<svg width="176" height="40" viewBox="0 0 176 40" fill="none" xmlns="http://www.w3.org/2000/svg">
<path d="M20.757 0.553521C19.2674 0.19129 17.6109 0 15.7835 0H12.0309C5.38869 0 0 5.38462 0 12.0309V40C4.56655 40 8.40049 36.858 9.45462 32.6129C9.64591 31.86 9.74359 31.0704 9.74359 30.2564V25.641H15.7835C17.6231 25.641 19.2796 25.4416 20.757 25.0712C27.4603 23.4025 30.4843 18.2947 30.4843 12.8775C30.4843 6.89866 27.2405 2.12454 20.757 0.553521ZM20.757 15.3358C20.0244 17.2243 18.254 18.3354 15.2055 18.3354H9.49939V12.7188C9.49939 9.85348 11.8193 7.52951 14.6846 7.52951H15.2055C18.254 7.52951 20.0244 8.64062 20.757 10.5332C21.0297 11.2332 21.16 12.0391 21.16 12.9345C21.16 13.8299 21.0297 14.6357 20.757 15.3358Z" fill="#44EABB"/>
<path d="M36.5405 0H22.5804C26.9109 1.3838 29.7232 4.20838 31.0134 7.86325H35.7998C39.6744 7.86325 41.3268 9.80057 41.3268 12.8775C41.3268 15.9544 39.6744 17.8917 35.7998 17.8917H30.9849C29.5401 21.8234 26.223 25.0427 20.757 26.2068V40C26.1376 40 30.5006 35.637 30.5006 30.2564V25.641H36.5405C46.7399 25.641 51.2414 19.4872 51.2414 12.8775C51.2414 5.52707 46.3411 0 36.5405 0Z" fill="#CFF5EA"/>
<path d="M72.3694 7.9C74.2547 7.9 75.8414 8.53467 77.1294 9.804C78.4174 11.0733 79.0614 12.632 79.0614 14.48C79.0614 16.328 78.4174 17.8867 77.1294 19.156C75.8414 20.4253 74.2547 21.06 72.3694 21.06H68.9254V27.5H65.0614V7.9H72.3694ZM72.3694 17.448C73.1907 17.448 73.872 17.168 74.4134 16.608C74.9547 16.0293 75.2254 15.32 75.2254 14.48C75.2254 13.6213 74.9547 12.912 74.4134 12.352C73.872 11.792 73.1907 11.512 72.3694 11.512H68.9254V17.448H72.3694ZM90.649 13.5H94.261V27.5H90.649V25.932C89.7716 27.2387 88.381 27.892 86.477 27.892C84.9463 27.892 83.677 27.3787 82.669 26.352C81.6796 25.3253 81.185 23.9067 81.185 22.096V13.5H84.797V21.648C84.797 22.5813 85.049 23.3 85.553 23.804C86.057 24.2893 86.729 24.532 87.569 24.532C88.5023 24.532 89.249 24.2427 89.809 23.664C90.369 23.0853 90.649 22.2173 90.649 21.06V13.5ZM105.717 13.108C107.602 13.108 109.208 13.8267 110.533 15.264C111.877 16.6827 112.549 18.428 112.549 20.5C112.549 22.572 111.877 24.3267 110.533 25.764C109.208 27.1827 107.602 27.892 105.717 27.892C103.757 27.892 102.245 27.2107 101.181 25.848V33.1H97.5691V13.5H101.181V15.152C102.245 13.7893 103.757 13.108 105.717 13.108ZM102.273 23.356C103.001 24.084 103.925 24.448 105.045 24.448C106.165 24.448 107.089 24.084 107.817 23.356C108.564 22.6093 108.937 21.6573 108.937 20.5C108.937 19.3427 108.564 18.4 107.817 17.672C107.089 16.9253 106.165 16.552 105.045 16.552C103.925 16.552 103.001 16.9253 102.273 17.672C101.545 18.4 101.181 19.3427 101.181 20.5C101.181 21.6573 101.545 22.6093 102.273 23.356ZM116.888 11.82C116.291 11.82 115.768 11.6053 115.32 11.176C114.891 10.728 114.676 10.2053 114.676 9.608C114.676 9.01067 114.891 8.488 115.32 8.04C115.768 7.592 116.291 7.368 116.888 7.368C117.504 7.368 118.027 7.592 118.456 8.04C118.904 8.488 119.128 9.01067 119.128 9.608C119.128 10.2053 118.904 10.728 118.456 11.176C118.027 11.6053 117.504 11.82 116.888 11.82ZM115.096 27.5V13.5H118.708V27.5H115.096ZM122.014 27.5V7.06H125.626V27.5H122.014ZM136.408 7.9C138.294 7.9 139.88 8.53467 141.168 9.804C142.456 11.0733 143.1 12.632 143.1 14.48C143.1 16.328 142.456 17.8867 141.168 19.156C139.88 20.4253 138.294 21.06 136.408 21.06H132.964V27.5H129.1V7.9H136.408ZM136.408 17.448C137.23 17.448 137.911 17.168 138.452 16.608C138.994 16.0293 139.264 15.32 139.264 14.48C139.264 13.6213 138.994 12.912 138.452 12.352C137.911 11.792 137.23 11.512 136.408 11.512H132.964V17.448H136.408ZM155.158 13.5H158.77V27.5H155.158V25.848C154.076 27.2107 152.554 27.892 150.594 27.892C148.728 27.892 147.122 27.1827 145.778 25.764C144.453 24.3267 143.79 22.572 143.79 20.5C143.79 18.428 144.453 16.6827 145.778 15.264C147.122 13.8267 148.728 13.108 150.594 13.108C152.554 13.108 154.076 13.7893 155.158 15.152V13.5ZM148.494 23.356C149.222 24.084 150.146 24.448 151.266 24.448C152.386 24.448 153.31 24.084 154.038 23.356C154.785 22.6093 155.158 21.6573 155.158 20.5C155.158 19.3427 154.785 18.4 154.038 17.672C153.31 16.9253 152.386 16.552 151.266 16.552C150.146 16.552 149.222 16.9253 148.494 17.672C147.766 18.4 147.402 19.3427 147.402 20.5C147.402 21.6573 147.766 22.6093 148.494 23.356ZM171.174 13.5H175.038L169.942 27.5C169.214 29.516 168.243 30.972 167.03 31.868C165.835 32.7827 164.342 33.1933 162.55 33.1V29.74C163.52 29.7587 164.286 29.5533 164.846 29.124C165.424 28.6947 165.882 28.004 166.218 27.052L160.478 13.5H164.426L168.066 22.908L171.174 13.5Z" fill="white"/>
</svg>
