<svg width="20" height="21" viewBox="0 0 20 21" fill="none" xmlns="http://www.w3.org/2000/svg">
<g clipPath="url(#clip0_30_287)">
<path d="M9.16666 17.7917C7.55969 17.7917 5.9888 17.3152 4.65265 16.4224C3.3165 15.5296 2.2751 14.2606 1.66014 12.776C1.04518 11.2913 0.884275 9.65766 1.19778 8.08157C1.51128 6.50547 2.28512 5.05773 3.42142 3.92143C4.55772 2.78513 6.00546 2.0113 7.58155 1.6978C9.15765 1.38429 10.7913 1.54519 12.276 2.16015C13.7606 2.77512 15.0296 3.81652 15.9224 5.15267C16.8151 6.48882 17.2917 8.0597 17.2917 9.66668C17.2903 11.8212 16.4339 13.887 14.9104 15.4105C13.387 16.9339 11.3211 17.7904 9.16666 17.7917ZM9.16666 2.79168C7.80691 2.79168 6.4777 3.19489 5.34711 3.95032C4.21653 4.70576 3.33534 5.77948 2.81499 7.03573C2.29464 8.29197 2.15849 9.6743 2.42376 11.0079C2.68903 12.3415 3.34382 13.5665 4.3053 14.528C5.26679 15.4895 6.4918 16.1443 7.82541 16.4096C9.15903 16.6748 10.5414 16.5387 11.7976 16.0183C13.0539 15.498 14.1276 14.6168 14.883 13.4862C15.6384 12.3556 16.0417 11.0264 16.0417 9.66668C16.0399 7.84385 15.315 6.0962 14.0261 4.80727C12.7371 3.51834 10.9895 2.79344 9.16666 2.79168Z" fill="#121212" stroke="#121212" stroke-width="0.4"/>
<path d="M16.8 19.4917C16.7358 19.4906 16.6717 19.485 16.6083 19.475C16.2167 19.425 15.5083 19.1583 15.1083 17.9667C15.0024 17.6835 14.966 17.379 15.0023 17.0788C15.0386 16.7786 15.1464 16.4915 15.3167 16.2417C15.5007 16.0011 15.7398 15.8081 16.0139 15.6791C16.2879 15.55 16.5889 15.4886 16.8917 15.5C17.2481 15.4673 17.6066 15.5341 17.9273 15.693C18.248 15.8519 18.5184 16.0966 18.7083 16.4C18.8535 16.7277 18.9062 17.0889 18.8607 17.4444C18.8151 17.7999 18.6731 18.1362 18.45 18.4167C18.2907 18.7227 18.0551 18.9824 17.7661 19.1707C17.477 19.359 17.1443 19.4696 16.8 19.4917ZM16.3 17.575C16.4417 18.0083 16.6417 18.225 16.775 18.2417C16.9083 18.2583 17.1583 18.1 17.4167 17.725C17.6583 17.3667 17.675 17.1083 17.6167 16.9917C17.5583 16.875 17.325 16.75 16.8917 16.75C16.7875 16.7415 16.6828 16.7575 16.5859 16.7965C16.489 16.8356 16.4025 16.8967 16.3333 16.975C16.2812 17.0654 16.251 17.1668 16.2452 17.271C16.2394 17.3752 16.2582 17.4794 16.3 17.575Z" fill="#121212" stroke="#121212" stroke-width="0.4"/>
</g>
<defs>
<clipPath id="clip0_30_287">
<rect width="20" height="20" fill="white" transform="translate(0 0.5)"/>
</clipPath>
</defs>
</svg>
